<svg xmlns="http://www.w3.org/2000/svg" xmlns:xlink="http://www.w3.org/1999/xlink" version="1.1" x="0px" y="0px" viewBox="0 0 100 125" style="enable-background:new 0 0 100 100;" xml:space="preserve"><g><path d="M79.99,50.29c0.07-8.2-3.09-15.88-8.91-21.65c-5.82-5.76-13.6-8.86-21.76-8.65c-16.17,0.35-29.33,14.12-29.33,30.69v29.13   l29.14,0.16C65.98,79.98,79.82,66.66,79.99,50.29z M48.74,24.98c4.14,0,7.51,3.36,7.51,7.5s-3.37,7.5-7.51,7.5   c-4.12,0-7.5-3.36-7.5-7.5S44.61,24.98,48.74,24.98z M59.37,72.09c0,1.25-0.99,2.26-2.19,2.26H40.31c-1.21,0-2.2-1.01-2.2-2.26v-2   c0-1.25,0.99-2.26,2.2-2.26h0.92L41.2,50.25c-1.36,0-2.46-1.14-2.46-2.54v-1.44c0-1.4,1.1-2.55,2.46-2.55h12.28   c1.52,0,2.76,1.29,2.76,2.87v21.23h0.94c1.2,0,2.19,1.01,2.19,2.26V72.09z"/><path d="M93.97,48.27C93.1,25.45,74.54,6.9,51.71,6.03c-11.9-0.44-23.24,3.78-31.88,11.93C11.17,26.13,6.26,37.15,6,49.02   l2.12-0.07C8.31,37.46,13.16,26.8,21.73,19c8.54-7.8,19.65-11.65,31.24-10.85c20.74,1.43,37.45,18.13,38.88,38.86   c0.8,11.6-3.05,22.68-10.86,31.22c-7.79,8.54-18.44,13.4-29.97,13.67V94c11.81-0.31,22.84-5.21,31-13.87   C90.18,71.49,94.42,60.17,93.97,48.27z"/><path d="M48.74,37.48c2.76,0,5.01-2.24,5.01-5c0-2.75-2.25-5-5.01-5c-2.75,0-5,2.25-5,5C43.74,35.24,45.99,37.48,48.74,37.48z"/><path d="M53.75,68.08V46.6c0-0.22-0.14-0.37-0.26-0.37H41.2l0.04,1.49l1.25,0.04c0.7,0,1.25,0.56,1.25,1.25v19.08   c0,1.24-0.97,2.25-2.19,2.25h-0.94v1.52h16.26v-1.52h-0.94C54.72,70.33,53.75,69.32,53.75,68.08z"/></g><text x="0" y="115" fill="#000000" font-size="5px" font-weight="bold" font-family="'Helvetica Neue', Helvetica, Arial-Unicode, Arial, Sans-serif">Created by Zpoliariumz Zydanez</text><text x="0" y="120" fill="#000000" font-size="5px" font-weight="bold" font-family="'Helvetica Neue', Helvetica, Arial-Unicode, Arial, Sans-serif">from the Noun Project</text></svg>